<?xml version="1.0" encoding="UTF-8" standalone="no"?>
<svg
   xmlns:dc="http://purl.org/dc/elements/1.1/"
   xmlns:cc="http://creativecommons.org/ns#"
   xmlns:rdf="http://www.w3.org/1999/02/22-rdf-syntax-ns#"
   xmlns:svg="http://www.w3.org/2000/svg"
   xmlns="http://www.w3.org/2000/svg"
   xmlns:sodipodi="http://sodipodi.sourceforge.net/DTD/sodipodi-0.dtd"
   xmlns:inkscape="http://www.inkscape.org/namespaces/inkscape"
   sodipodi:docname="logo.svg"
   inkscape:version="1.0 (4035a4fb49, 2020-05-01)"
   id="svg8"
   version="1.1"
   viewBox="0 0 40 29"
   height="29mm"
   width="40mm">
  <defs
     id="defs2" />
  <sodipodi:namedview
     inkscape:document-rotation="0"
     inkscape:window-maximized="1"
     inkscape:window-y="0"
     inkscape:window-x="2560"
     inkscape:window-height="1043"
     inkscape:window-width="1920"
     showgrid="false"
     inkscape:current-layer="layer1"
     inkscape:document-units="mm"
     inkscape:cy="68.649858"
     inkscape:cx="52.84597"
     inkscape:zoom="3.959798"
     inkscape:pageshadow="2"
     inkscape:pageopacity="0.0"
     borderopacity="1.0"
     bordercolor="#666666"
     pagecolor="#ffffff"
     id="base" />
  <metadata
     id="metadata5">
    <rdf:RDF>
      <cc:Work
         rdf:about="">
        <dc:format>image/svg+xml</dc:format>
        <dc:type
           rdf:resource="http://purl.org/dc/dcmitype/StillImage" />
        <dc:title></dc:title>
      </cc:Work>
    </rdf:RDF>
  </metadata>
  <g
     transform="translate(0,-268)"
     id="layer1"
     inkscape:groupmode="layer"
     inkscape:label="Capa 1">
    <g
       inkscape:export-filename="/home/oscar/proyectos/tinyGS/tinygs-webapp/src/assets/logo.png"
       style="fill:#f9f9f9"
       inkscape:export-ydpi="61.890343"
       inkscape:export-xdpi="61.890343"
       transform="matrix(3.7102374,0,0,3.7102374,-127.44702,106.89014)"
       id="g969">
      <text
         xml:space="preserve"
         style="font-style:normal;font-variant:normal;font-weight:normal;font-stretch:normal;font-size:3.64858px;line-height:7.6012px;font-family:FreeMono;-inkscape-font-specification:FreeMono;text-align:center;letter-spacing:0px;word-spacing:0px;text-anchor:middle;fill:#f9f9f9;fill-opacity:1;stroke:none;stroke-width:0.304048px;stroke-linecap:butt;stroke-linejoin:miter;stroke-opacity:1"
         x="41.93351"
         y="46.023808"
         id="text817"><tspan
           sodipodi:role="line"
           id="tspan815"
           x="42.663223"
           y="46.023808"
           style="font-style:normal;font-variant:normal;font-weight:normal;font-stretch:normal;font-size:2.43239px;font-family:FreeMono;-inkscape-font-specification:FreeMono;stroke-width:0.304048px;fill:#f9f9f9">TINY </tspan></text>
      <flowRoot
         xml:space="preserve"
         id="flowRoot819"
         style="font-style:normal;font-variant:normal;font-weight:bold;font-stretch:normal;font-size:21.3333px;line-height:2.30551px;font-family:FreeMono;-inkscape-font-specification:'FreeMono Bold';text-align:center;letter-spacing:0px;word-spacing:0px;text-anchor:middle;fill:#f9f9f9;fill-opacity:1;stroke:none;stroke-width:1px;stroke-linecap:butt;stroke-linejoin:miter;stroke-opacity:1"
         transform="matrix(0.26458333,0,0,0.26458333,-0.07218977,-1.5367998)"><flowRegion
           id="flowRegion821"
           style="font-style:normal;font-variant:normal;font-weight:bold;font-stretch:normal;font-size:21.3333px;line-height:21.2031px;font-family:FreeMono;-inkscape-font-specification:'FreeMono Bold';fill:#f9f9f9"><rect
             id="rect823"
             width="29.294424"
             height="26.263966"
             x="144.19928"
             y="176.51183"
             style="font-style:normal;font-variant:normal;font-weight:bold;font-stretch:normal;font-size:21.33333397px;line-height:21.2031498px;font-family:FreeMono;-inkscape-font-specification:'FreeMono Bold';fill:#f9f9f9" /></flowRegion><flowPara
           id="flowPara825"
           style="font-style:normal;font-variant:normal;font-weight:bold;font-stretch:normal;font-size:21.3333px;line-height:21.2031px;font-family:FreeMono;-inkscape-font-specification:'FreeMono Bold';letter-spacing:0.12px;fill:#f9f9f9">GS</flowPara></flowRoot>
      <g
         style="fill:#f9f9f9"
         id="g938"
         transform="matrix(0.00805798,0,0,0.00805798,33.97581,44.764097)">
        <g
           style="fill:#f9f9f9"
           id="g877">
          <g
             style="fill:#f9f9f9"
             id="g875">
            <path
               style="fill:#f9f9f9"
               id="path865"
               d="M 194.84,254.637 312.135,137.342 198.831,120.14 c -12.402,-1.883 -23.076,8.792 -21.193,21.193 z"
               inkscape:connector-curvature="0" />
            <path
               style="fill:#f9f9f9"
               id="path867"
               d="m 388.511,516.293 c -19.922,8.436 -40.467,14.752 -61.48,18.924 l -61.826,55.115 c -8.509,7.586 -3.144,21.669 8.256,21.669 h 236.204 c 10.278,0 18.611,-8.333 18.611,-18.611 V 401.134 c -11.354,16.822 -24.347,32.568 -38.9,47.121 -29.148,29.147 -63.083,52.039 -100.865,68.038 z"
               inkscape:connector-curvature="0" />
            <path
               style="fill:#f9f9f9"
               id="path869"
               d="m 483.292,33.806 c -3.697,-4.241 -8.867,-6.389 -14.048,-6.389 -4.749,0 -9.508,1.803 -13.155,5.45 L 346.411,142.546 200.044,288.912 73.988,414.969 c -7.626,7.627 -7.191,20.116 0.939,27.203 50.854,44.334 117.347,71.185 190.111,71.185 39.538,0 77.24,-7.96 111.595,-22.357 59.747,-25.038 109.362,-69.553 140.869,-125.576 23.54,-41.856 36.976,-90.132 36.976,-141.507 C 554.477,151.153 527.626,84.66 483.292,33.806 Z"
               inkscape:connector-curvature="0" />
            <path
               style="fill:#f9f9f9"
               id="path871"
               d="m 194.98,87.453 c 13.356,0 25.913,5.201 35.358,14.645 5.451,5.45 14.289,5.45 19.74,-0.001 5.451,-5.451 5.45,-14.289 -0.001,-19.74 -14.718,-14.716 -34.285,-22.821 -55.097,-22.821 -42.967,0 -77.923,34.957 -77.923,77.923 0,20.815 8.106,40.384 22.824,55.101 2.725,2.725 6.297,4.088 9.869,4.088 3.572,0 7.145,-1.363 9.87,-4.089 5.451,-5.451 5.451,-14.289 -0.001,-19.739 -9.446,-9.445 -14.647,-22.003 -14.647,-35.361 0.001,-27.573 22.434,-50.006 50.008,-50.006 z"
               inkscape:connector-curvature="0" />
            <path
               style="fill:#f9f9f9"
               id="path873"
               d="m 106.833,233.962 c 3.572,0 7.145,-1.363 9.87,-4.089 5.451,-5.451 5.45,-14.289 -0.001,-19.739 C 96.541,189.974 85.438,163.168 85.438,134.656 85.437,75.8 133.321,27.916 192.177,27.916 c 28.509,0 55.313,11.102 75.472,31.26 5.451,5.451 14.289,5.45 19.739,-0.001 5.451,-5.451 5.451,-14.289 -10e-4,-19.739 C 261.956,14.005 228.143,0 192.177,0 156.208,0 122.394,14.007 96.961,39.439 71.528,64.871 57.522,98.687 57.522,134.655 c 0,35.969 14.007,69.785 39.442,95.218 2.725,2.726 6.297,4.089 9.869,4.089 z"
               inkscape:connector-curvature="0" />
          </g>
        </g>
        <g
           style="fill:#f9f9f9"
           id="g879" />
        <g
           style="fill:#f9f9f9"
           id="g881" />
        <g
           style="fill:#f9f9f9"
           id="g883" />
        <g
           style="fill:#f9f9f9"
           id="g885" />
        <g
           style="fill:#f9f9f9"
           id="g887" />
        <g
           style="fill:#f9f9f9"
           id="g889" />
        <g
           style="fill:#f9f9f9"
           id="g891" />
        <g
           style="fill:#f9f9f9"
           id="g893" />
        <g
           style="fill:#f9f9f9"
           id="g895" />
        <g
           style="fill:#f9f9f9"
           id="g897" />
        <g
           style="fill:#f9f9f9"
           id="g899" />
        <g
           style="fill:#f9f9f9"
           id="g901" />
        <g
           style="fill:#f9f9f9"
           id="g903" />
        <g
           style="fill:#f9f9f9"
           id="g905" />
        <g
           style="fill:#f9f9f9"
           id="g907" />
      </g>
    </g>
  </g>
</svg>
