<?xml version="1.0" encoding="UTF-8" standalone="no"?>
<svg
   xmlns:dc="http://purl.org/dc/elements/1.1/"
   xmlns:cc="http://creativecommons.org/ns#"
   xmlns:rdf="http://www.w3.org/1999/02/22-rdf-syntax-ns#"
   xmlns:svg="http://www.w3.org/2000/svg"
   xmlns="http://www.w3.org/2000/svg"
   xmlns:sodipodi="http://sodipodi.sourceforge.net/DTD/sodipodi-0.dtd"
   xmlns:inkscape="http://www.inkscape.org/namespaces/inkscape"
   inkscape:export-ydpi="70.07"
   inkscape:export-xdpi="70.07"
   inkscape:export-filename="/home/oscar/proyectos/tinyGS/tinygs-webapp/src/assets/logo.png"
   sodipodi:docname="logo.svg"
   inkscape:version="1.0 (4035a4fb49, 2020-05-01)"
   id="svg8"
   version="1.1"
   viewBox="0 0 41.860273 21.524385"
   height="81.352005"
   width="158.21205">
  <defs
     id="defs2" />
  <sodipodi:namedview
     fit-margin-bottom="5"
     fit-margin-right="5"
     fit-margin-left="5"
     fit-margin-top="5"
     units="px"
     inkscape:document-rotation="0"
     inkscape:window-maximized="1"
     inkscape:window-y="0"
     inkscape:window-x="2560"
     inkscape:window-height="1043"
     inkscape:window-width="1920"
     showgrid="false"
     inkscape:current-layer="layer1"
     inkscape:document-units="mm"
     inkscape:cy="39.116603"
     inkscape:cx="50.419148"
     inkscape:zoom="3.959798"
     inkscape:pageshadow="2"
     inkscape:pageopacity="0.0"
     borderopacity="1.0"
     bordercolor="#666666"
     pagecolor="#ffffff"
     id="base" />
  <metadata
     id="metadata5">
    <rdf:RDF>
      <cc:Work
         rdf:about="">
        <dc:format>image/svg+xml</dc:format>
        <dc:type
           rdf:resource="http://purl.org/dc/dcmitype/StillImage" />
        <dc:title></dc:title>
      </cc:Work>
    </rdf:RDF>
  </metadata>
  <g
     transform="translate(0.9918794,-271.24554)"
     id="layer1"
     inkscape:groupmode="layer"
     inkscape:label="Capa 1">
    <g
       transform="matrix(0.73926178,0,0,0.73926178,5.1986694,73.530189)"
       style="font-style:normal;font-variant:normal;font-weight:normal;font-stretch:normal;font-size:13.5371px;line-height:28.2023px;font-family:FreeMono;-inkscape-font-specification:FreeMono;text-align:center;letter-spacing:0px;word-spacing:0px;text-anchor:middle;fill:#ffffff;fill-opacity:1;stroke:none;stroke-width:1.12809px;stroke-linecap:butt;stroke-linejoin:miter;stroke-opacity:1"
       id="text817"
       aria-label="TINY ">
      <path
         id="path907"
         style="font-style:normal;font-variant:normal;font-weight:normal;font-stretch:normal;font-size:9.02474px;font-family:FreeMono;-inkscape-font-specification:FreeMono;fill:#ffffff;stroke-width:1.12809px"
         d="m 20.203538,277.27937 h 0.947598 q 0.243668,0 0.243668,0.18049 0,0.18952 -0.243668,0.18952 h -2.26521 q -0.243668,0 -0.243668,-0.18952 0,-0.18049 0.243668,-0.18049 h 0.947598 v -4.3409 h -1.507132 v 0.65881 q 0,0.24366 -0.189519,0.24366 -0.180495,0 -0.180495,-0.24366 v -1.02883 h 4.115281 v 1.02883 q 0,0.24366 -0.180495,0.24366 -0.08122,0 -0.135371,-0.0632 -0.05415,-0.0722 -0.05415,-0.18049 v -0.65881 h -1.498107 z" />
      <path
         id="path909"
         style="font-style:normal;font-variant:normal;font-weight:normal;font-stretch:normal;font-size:9.02474px;font-family:FreeMono;-inkscape-font-specification:FreeMono;fill:#ffffff;stroke-width:1.12809px"
         d="m 25.609344,272.93847 v 4.3409 h 1.254438 q 0.252693,0 0.252693,0.18049 0,0.0361 -0.009,0.0722 -0.009,0.0271 -0.0361,0.0541 -0.01805,0.0181 -0.05415,0.0361 -0.02707,0.009 -0.0722,0.018 -0.0361,0.009 -0.08122,0.009 H 23.98489 q -0.243668,0 -0.243668,-0.18952 0,-0.18049 0.243668,-0.18049 h 1.254439 v -4.3409 H 23.98489 q -0.243668,0 -0.243668,-0.18952 0,-0.1805 0.243668,-0.1805 h 2.878892 q 0.252693,0 0.252693,0.1805 0,0.18952 -0.252693,0.18952 z" />
      <path
         id="path911"
         style="font-style:normal;font-variant:normal;font-weight:normal;font-stretch:normal;font-size:9.02474px;font-family:FreeMono;-inkscape-font-specification:FreeMono;fill:#ffffff;stroke-width:1.12809px"
         d="m 32.657652,277.64938 h -0.469287 l -2.752546,-4.54847 v 4.17846 h 0.676856 q 0.243668,0 0.243668,0.18049 0,0.0361 -0.009,0.0722 -0.009,0.0271 -0.0361,0.0541 -0.01805,0.0181 -0.04512,0.0361 -0.02707,0.009 -0.0722,0.018 -0.0361,0.009 -0.08122,0.009 h -1.353711 q -0.243668,0 -0.243668,-0.18952 0,-0.18049 0.243668,-0.18049 h 0.306841 v -4.3409 h -0.487336 q -0.243668,0 -0.243668,-0.18952 0,-0.1805 0.243668,-0.1805 h 0.956623 l 2.752545,4.54847 v -4.17845 h -0.66783 q -0.252693,0 -0.252693,-0.18952 0,-0.1805 0.252693,-0.1805 h 1.344686 q 0.243668,0 0.243668,0.1805 0,0.18952 -0.243668,0.18952 H 32.65768 Z" />
      <path
         id="path913"
         style="font-style:normal;font-variant:normal;font-weight:normal;font-stretch:normal;font-size:9.02474px;font-family:FreeMono;-inkscape-font-specification:FreeMono;fill:#ffffff;stroke-width:1.12809px"
         d="m 36.457054,275.3571 v 1.92227 h 0.947598 q 0.243668,0 0.243668,0.18049 0,0.18952 -0.243668,0.18952 h -2.26521 q -0.243668,0 -0.243668,-0.18952 0,-0.18049 0.243668,-0.18049 h 0.947598 v -1.92227 l -1.615428,-2.41863 h -0.216594 q -0.243668,0 -0.243668,-0.18952 0,-0.1805 0.243668,-0.1805 h 1.001746 q 0.243668,0 0.243668,0.1805 0,0.18952 -0.243668,0.18952 h -0.34294 l 1.37176,2.04862 1.344687,-2.04862 h -0.36099 q -0.252693,0 -0.252693,-0.18952 0,-0.1805 0.252693,-0.1805 h 0.992721 q 0.243668,0 0.243668,0.1805 0,0.18952 -0.243668,0.18952 h -0.216593 z" />
    </g>
    <g
       style="font-style:normal;font-variant:normal;font-weight:bold;font-stretch:normal;font-size:21.3333px;line-height:2.30551px;font-family:FreeMono;-inkscape-font-specification:'FreeMono Bold';text-align:center;letter-spacing:0px;word-spacing:0px;text-anchor:middle;fill:#ffffff;fill-opacity:1;stroke:none;stroke-width:1px;stroke-linecap:butt;stroke-linejoin:miter;stroke-opacity:1"
       id="flowRoot819"
       transform="matrix(0.72570888,0,0,0.72570888,-89.216045,148.3348)"
       aria-label="GS">
      <path
         id="path916"
         style="font-style:normal;font-variant:normal;font-weight:bold;font-stretch:normal;font-size:21.3333px;line-height:21.2031px;font-family:FreeMono;-inkscape-font-specification:'FreeMono Bold';letter-spacing:0.12px;fill:#ffffff"
         d="m 157.18671,187.53993 q 1.42934,0 1.42934,1.06667 0,0.81067 -0.896,1.06666 v 2.816 q -1.42933,0.74667 -2.432,1.024 -1.00266,0.29867 -2.24,0.29867 -1.45066,0 -2.60266,-0.34134 -1.152,-0.36266 -1.83466,-0.91733 -0.68267,-0.55467 -1.13067,-1.30133 -0.448,-0.768 -0.61866,-1.49333 -0.17067,-0.72533 -0.17067,-1.49333 v -1.51467 q 0,-2.49599 1.68533,-4.22399 1.70667,-1.74933 4.37333,-1.74933 1.728,0 3.09333,0.68266 0.34133,-0.68266 0.87466,-0.68266 0.576,0 0.78933,0.36267 0.21334,0.34133 0.21334,1.04533 v 1.66399 q 0,0.68267 -0.23467,1.04534 -0.21333,0.36266 -0.832,0.36266 -0.14933,0 -0.29866,-0.0213 -0.128,-0.0427 -0.21334,-0.0853 -0.0853,-0.064 -0.17066,-0.14934 -0.064,-0.0853 -0.128,-0.14933 -0.0427,-0.0853 -0.0853,-0.192 -0.0427,-0.128 -0.064,-0.192 -0.0213,-0.064 -0.064,-0.17067 -0.0213,-0.128 -0.0213,-0.17066 -0.17067,-0.55467 -0.91733,-0.87467 -0.74667,-0.34133 -1.92,-0.34133 -1.792,0 -2.87999,1.06666 -1.06667,1.04534 -1.06667,2.77333 v 1.36533 q 0,1.62133 0.896,2.60267 0.91733,0.96 3.19999,0.96 1.472,0 2.66667,-0.53334 v -1.472 h -2.13333 q -1.408,0 -1.408,-1.06666 0,-0.61867 0.36267,-0.832 0.36266,-0.23467 1.04533,-0.23467 z" />
      <path
         id="path918"
         style="font-style:normal;font-variant:normal;font-weight:bold;font-stretch:normal;font-size:21.3333px;line-height:21.2031px;font-family:FreeMono;-inkscape-font-specification:'FreeMono Bold';letter-spacing:0.12px;fill:#ffffff"
         d="m 168.89066,180.77728 q 0.64,0 0.832,0.36267 0.21334,0.36266 0.21334,1.04533 v 1.87733 q 0,1.42933 -1.04534,1.42933 -0.17066,0 -0.32,-0.0213 -0.128,-0.0427 -0.23466,-0.0853 -0.0853,-0.064 -0.17067,-0.14933 -0.0853,-0.10667 -0.128,-0.17067 -0.0427,-0.064 -0.0853,-0.192 -0.0427,-0.128 -0.064,-0.17066 0,-0.064 -0.0427,-0.192 -0.0213,-0.14934 -0.0213,-0.17067 -0.14933,-0.64 -0.85333,-1.024 -0.68267,-0.40533 -1.68533,-0.40533 -1.00267,0 -1.70667,0.46933 -0.704,0.46933 -0.704,1.152 0,0.72533 0.704,1.13066 0.704,0.384 1.64267,0.512 0.93866,0.10667 2.09066,0.42667 1.152,0.29867 1.81333,0.832 1.25866,1.00266 1.25866,2.66666 0,0.832 -0.36266,1.51467 -0.34133,0.68266 -0.98133,1.17333 -0.64,0.49066 -1.55733,0.74666 -0.896,0.27734 -1.984,0.27734 -1.77067,0 -3.328,-0.832 -0.192,0.21333 -0.32,0.32 -0.10666,0.10666 -0.23466,0.14933 -0.128,0.0427 -0.29867,0.0427 -1.088,0 -1.088,-1.408 v -1.408 q 0,-0.704 0.23467,-1.04533 0.23467,-0.36267 0.832,-0.36267 0.192,0 0.34133,0.0427 0.17067,0.0427 0.27733,0.128 0.10667,0.0853 0.17067,0.17067 0.0853,0.064 0.128,0.19199 0.064,0.128 0.0853,0.192 0.0213,0.064 0.0427,0.17067 0.0427,0.10667 0.0427,0.128 0.14933,0.576 1.024,0.98133 0.87466,0.40534 1.94133,0.40534 1.19466,0 2.00533,-0.46934 0.81066,-0.46933 0.81066,-1.152 0,-0.63999 -0.64,-1.02399 -0.61866,-0.384 -1.45066,-0.512 -0.81067,-0.128 -1.92,-0.384 -1.088,-0.256 -1.74933,-0.61867 -0.81067,-0.46933 -1.28,-1.25866 -0.46933,-0.78934 -0.46933,-1.70667 0,-1.62133 1.32266,-2.68799 1.32267,-1.088 3.30667,-1.088 1.64266,0 2.77332,0.704 0.17067,-0.40533 0.34134,-0.55467 0.17066,-0.14933 0.49066,-0.14933 z" />
    </g>
    <g
       transform="matrix(0.02210172,0,0,0.02210172,4.1720573,275.33059)"
       id="g938"
       style="fill:#ffffff">
      <g
         id="g877"
         style="fill:#ffffff">
        <g
           id="g875"
           style="fill:#ffffff">
          <path
             inkscape:connector-curvature="0"
             d="M 194.84,254.637 312.135,137.342 198.831,120.14 c -12.402,-1.883 -23.076,8.792 -21.193,21.193 z"
             id="path865"
             style="fill:#ffffff" />
          <path
             inkscape:connector-curvature="0"
             d="m 388.511,516.293 c -19.922,8.436 -40.467,14.752 -61.48,18.924 l -61.826,55.115 c -8.509,7.586 -3.144,21.669 8.256,21.669 h 236.204 c 10.278,0 18.611,-8.333 18.611,-18.611 V 401.134 c -11.354,16.822 -24.347,32.568 -38.9,47.121 -29.148,29.147 -63.083,52.039 -100.865,68.038 z"
             id="path867"
             style="fill:#ffffff" />
          <path
             inkscape:connector-curvature="0"
             d="m 483.292,33.806 c -3.697,-4.241 -8.867,-6.389 -14.048,-6.389 -4.749,0 -9.508,1.803 -13.155,5.45 L 346.411,142.546 200.044,288.912 73.988,414.969 c -7.626,7.627 -7.191,20.116 0.939,27.203 50.854,44.334 117.347,71.185 190.111,71.185 39.538,0 77.24,-7.96 111.595,-22.357 59.747,-25.038 109.362,-69.553 140.869,-125.576 23.54,-41.856 36.976,-90.132 36.976,-141.507 C 554.477,151.153 527.626,84.66 483.292,33.806 Z"
             id="path869"
             style="fill:#ffffff" />
          <path
             inkscape:connector-curvature="0"
             d="m 194.98,87.453 c 13.356,0 25.913,5.201 35.358,14.645 5.451,5.45 14.289,5.45 19.74,-0.001 5.451,-5.451 5.45,-14.289 -0.001,-19.74 -14.718,-14.716 -34.285,-22.821 -55.097,-22.821 -42.967,0 -77.923,34.957 -77.923,77.923 0,20.815 8.106,40.384 22.824,55.101 2.725,2.725 6.297,4.088 9.869,4.088 3.572,0 7.145,-1.363 9.87,-4.089 5.451,-5.451 5.451,-14.289 -0.001,-19.739 -9.446,-9.445 -14.647,-22.003 -14.647,-35.361 0.001,-27.573 22.434,-50.006 50.008,-50.006 z"
             id="path871"
             style="fill:#ffffff" />
          <path
             inkscape:connector-curvature="0"
             d="m 106.833,233.962 c 3.572,0 7.145,-1.363 9.87,-4.089 5.451,-5.451 5.45,-14.289 -0.001,-19.739 C 96.541,189.974 85.438,163.168 85.438,134.656 85.437,75.8 133.321,27.916 192.177,27.916 c 28.509,0 55.313,11.102 75.472,31.26 5.451,5.451 14.289,5.45 19.739,-0.001 5.451,-5.451 5.451,-14.289 -10e-4,-19.739 C 261.956,14.005 228.143,0 192.177,0 156.208,0 122.394,14.007 96.961,39.439 71.528,64.871 57.522,98.687 57.522,134.655 c 0,35.969 14.007,69.785 39.442,95.218 2.725,2.726 6.297,4.089 9.869,4.089 z"
             id="path873"
             style="fill:#ffffff" />
        </g>
      </g>
      <g
         id="g879"
         style="fill:#ffffff" />
      <g
         id="g881"
         style="fill:#ffffff" />
      <g
         id="g883"
         style="fill:#ffffff" />
      <g
         id="g885"
         style="fill:#ffffff" />
      <g
         id="g887"
         style="fill:#ffffff" />
      <g
         id="g889"
         style="fill:#ffffff" />
      <g
         id="g891"
         style="fill:#ffffff" />
      <g
         id="g893"
         style="fill:#ffffff" />
      <g
         id="g895"
         style="fill:#ffffff" />
      <g
         id="g897"
         style="fill:#ffffff" />
      <g
         id="g899"
         style="fill:#ffffff" />
      <g
         id="g901"
         style="fill:#ffffff" />
      <g
         id="g903"
         style="fill:#ffffff" />
      <g
         id="g905"
         style="fill:#ffffff" />
      <g
         id="g907"
         style="fill:#ffffff" />
    </g>
  </g>
</svg>
